<svg width="136" height="42" viewBox="0 0 136 42" fill="none" xmlns="http://www.w3.org/2000/svg">
<path d="M27.6634 19.5061C27.6634 20.1593 27.4751 20.7153 27.099 21.1736C26.7239 21.6307 26.2686 21.859 25.7326 21.859C25.1965 21.859 24.7403 21.6307 24.3642 21.1736C23.9891 20.7153 23.8018 20.1593 23.8018 19.5061V2.84264C23.8018 2.18944 23.9891 1.63457 24.3642 1.17744C24.7403 0.71917 25.1965 0.489746 25.7326 0.489746C26.2686 0.489746 26.7239 0.71917 27.099 1.17744C27.4751 1.63457 27.6634 2.18944 27.6634 2.84264V19.5061Z" fill="white"/>
<path d="M43.5693 17.0544C43.5693 16.2052 43.81 15.487 44.2922 14.8993C44.7754 14.3105 45.3652 14.0161 46.0626 14.0161C46.7595 14.0161 47.3488 14.3105 47.8311 14.8993C48.3142 15.487 48.5558 16.2052 48.5558 17.0544C48.5558 17.9043 48.3142 18.623 47.8311 19.2118C47.3488 19.7995 46.7595 20.0927 46.0626 20.0927C45.3652 20.0927 44.7754 19.7995 44.2922 19.2118C43.81 18.623 43.5693 17.9043 43.5693 17.0544ZM35.0835 21.4658C34.6806 22.0546 34.1842 22.349 33.5944 22.349C33.0584 22.349 32.6021 22.1207 32.226 21.6636C31.8509 21.2053 31.6636 20.6493 31.6636 19.9961C31.6636 19.4073 31.7976 18.9335 32.0656 18.5747L41.8386 2.54839C42.2953 1.79744 42.8983 1.18449 43.6486 0.710697C44.3998 0.236899 45.2043 0 46.0626 0C46.8666 0 47.6301 0.212749 48.3539 0.637097C49.0786 1.06202 49.6684 1.65024 50.1243 2.40119L59.8972 18.3286C60.0567 18.5575 60.1902 18.811 60.2974 19.0899C60.4054 19.3676 60.4597 19.6695 60.4597 19.9961C60.4597 20.6493 60.2714 21.2053 59.8953 21.6636C59.5202 22.1207 59.0649 22.349 58.5289 22.349C57.8857 22.349 57.3761 22.0385 57.0001 21.4175L47.631 6.17547C47.4432 5.91327 47.2087 5.6275 46.927 5.31758C46.6448 5.00823 46.357 4.85298 46.0626 4.85298C45.7667 4.85298 45.4779 5.00823 45.1962 5.31758C44.9155 5.6275 44.6947 5.91327 44.5338 6.17547L35.0835 21.4658Z" fill="white"/>
<path d="M90.3188 13.5261C91.0435 14.0815 91.7806 14.6778 92.5308 15.3155C93.282 15.952 94.0464 16.646 94.824 17.397C95.1184 17.6592 95.3723 17.9622 95.5865 18.3055C95.8017 18.6476 95.9093 19.0478 95.9093 19.5061C95.9093 20.1593 95.7215 20.7153 95.3468 21.1736C94.9717 21.6307 94.5154 21.859 93.9784 21.859C93.5226 21.859 93.0673 21.6301 92.612 21.1713C91.5121 20.1915 90.3858 19.245 89.2335 18.3308C88.0808 17.4154 86.8809 16.5983 85.6342 15.879C84.3871 15.1602 83.0929 14.5881 81.7519 14.1632C80.4118 13.7388 79.018 13.5261 77.5713 13.5261H69.5687C69.22 13.5922 68.9251 13.7883 68.6835 14.1149C68.4419 14.4415 68.3211 14.8503 68.3211 15.3408V19.5061C68.3211 20.1593 68.1267 20.7153 67.7379 21.1736C67.3491 21.6307 66.8999 21.859 66.3903 21.859C65.8543 21.859 65.398 21.6307 65.0219 21.1736C64.6468 20.7153 64.4595 20.1593 64.4595 19.5061V14.8003C64.4595 13.9832 64.5864 13.2075 64.8407 12.4727C65.096 11.7384 65.4381 11.1013 65.8675 10.5614C66.2964 10.0221 66.806 9.59713 67.3963 9.28721C67.9861 8.97786 68.6297 8.82261 69.3271 8.82261H90.6415C91.044 8.82261 91.3993 8.65126 91.7079 8.30741C92.016 7.96414 92.1703 7.53117 92.1703 7.00792C92.1703 6.51917 92.016 6.09482 91.7079 5.73602C91.3993 5.37607 91.044 5.19553 90.6415 5.19553H66.3903C65.8543 5.19553 65.398 4.96725 65.0219 4.51013C64.6468 4.05186 64.4595 3.49583 64.4595 2.84264C64.4595 2.18944 64.6468 1.63457 65.0219 1.17744C65.398 0.71917 65.8543 0.489746 66.3903 0.489746H90.4811C91.2309 0.489746 91.9344 0.66167 92.5912 1.00494C93.248 1.34879 93.8242 1.81454 94.3201 2.40334C94.8169 2.99099 95.2057 3.67696 95.4865 4.46183C95.7682 5.24555 95.9093 6.09425 95.9093 7.00792C95.9093 7.92331 95.7682 8.77373 95.4865 9.55861C95.2057 10.3423 94.8169 11.0283 94.3201 11.6171C93.8242 12.2047 93.248 12.6699 92.5912 13.0132C91.9344 13.3553 91.2309 13.5261 90.4811 13.5261H90.3188Z" fill="white"/>
<path d="M111.815 17.0544C111.815 16.2052 112.056 15.487 112.538 14.8993C113.021 14.3105 113.611 14.0161 114.308 14.0161C115.005 14.0161 115.594 14.3105 116.077 14.8993C116.56 15.487 116.801 16.2052 116.801 17.0544C116.801 17.9043 116.56 18.623 116.077 19.2118C115.594 19.7995 115.005 20.0927 114.308 20.0927C113.611 20.0927 113.021 19.7995 112.538 19.2118C112.056 18.623 111.815 17.9043 111.815 17.0544ZM103.329 21.4658C102.926 22.0546 102.43 22.349 101.84 22.349C101.304 22.349 100.848 22.1207 100.472 21.6636C100.097 21.2053 99.9092 20.6493 99.9092 19.9961C99.9092 19.4073 100.043 18.9335 100.311 18.5747L110.084 2.54839C110.541 1.79744 111.144 1.18449 111.894 0.710697C112.645 0.236899 113.45 0 114.308 0C115.112 0 115.876 0.212749 116.599 0.637097C117.324 1.06202 117.914 1.65024 118.37 2.40119L128.143 18.3286C128.302 18.5575 128.436 18.811 128.543 19.0899C128.651 19.3676 128.705 19.6695 128.705 19.9961C128.705 20.6493 128.517 21.2053 128.141 21.6636C127.766 22.1207 127.31 22.349 126.774 22.349C126.131 22.349 125.622 22.0385 125.246 21.4175L115.877 6.17547C115.689 5.91327 115.454 5.6275 115.173 5.31758C114.89 5.00823 114.603 4.85298 114.308 4.85298C114.012 4.85298 113.724 5.00823 113.442 5.31758C113.161 5.6275 112.94 5.91327 112.779 6.17547L103.329 21.4658Z" fill="white"/>
<mask id="mask0_559_1353" style="mask-type:luminance" maskUnits="userSpaceOnUse" x="0" y="17" width="20" height="22">
<path d="M20 17.1035H0V38.2685H20V17.1035Z" fill="white"/>
</mask>
<g mask="url(#mask0_559_1353)">
<path d="M12.9701 29.2813C12.6073 29.2813 12.2999 29.1284 12.0491 28.8228C11.7983 28.5171 11.6729 28.1438 11.6729 27.7029C11.6729 27.262 11.7983 26.8887 12.0491 26.583C12.2999 26.2774 12.6073 26.1245 12.9701 26.1245C13.332 26.1245 13.6383 26.2774 13.8891 26.583C14.14 26.8887 14.2654 27.262 14.2654 27.7029C14.2654 28.1438 14.14 28.5171 13.8891 28.8228C13.6383 29.1284 13.332 29.2813 12.9701 29.2813ZM14.8513 34.6552C15.1021 34.9107 15.2275 35.2258 15.2275 35.5997C15.2275 35.9392 15.1304 36.2279 14.9356 36.4665C14.7398 36.7039 14.5028 36.8223 14.2242 36.8223C13.9734 36.8223 13.7714 36.7371 13.6178 36.5668L6.78182 30.3761C6.46109 30.0892 6.19999 29.7072 5.99851 29.2311C5.79703 28.7551 5.69629 28.2459 5.69629 27.7029C5.69629 27.1937 5.78675 26.7102 5.96767 26.2523C6.14859 25.7932 6.39941 25.4193 6.72014 25.1299L13.5129 18.9393C13.6106 18.8378 13.7185 18.7532 13.8377 18.6862C13.956 18.6179 14.0844 18.5835 14.2242 18.5835C14.5028 18.5835 14.7398 18.7031 14.9356 18.9418C15.1304 19.1791 15.2275 19.4673 15.2275 19.8061C15.2275 20.2138 15.0954 20.5364 14.8307 20.7732L8.32992 26.7083C8.21788 26.8285 8.09555 26.9782 7.96397 27.1567C7.83136 27.334 7.76455 27.5162 7.76455 27.7029C7.76455 27.8902 7.83136 28.0731 7.96397 28.2516C8.09555 28.4288 8.21788 28.5685 8.32992 28.67L14.8513 34.6552Z" fill="url(#paint0_linear_559_1353)"/>
</g>
<mask id="mask1_559_1353" style="mask-type:luminance" maskUnits="userSpaceOnUse" x="0" y="0" width="20" height="23">
<path d="M20 0.90918H0V22.0742H20V0.90918Z" fill="white"/>
</mask>
<g mask="url(#mask1_559_1353)">
<path d="M7.13973 9.98245C7.5026 9.98245 7.80996 10.1353 8.06078 10.4409C8.3116 10.7466 8.43701 11.1199 8.43701 11.5608C8.43701 12.0017 8.3116 12.375 8.06078 12.6807C7.80996 12.9863 7.5026 13.1392 7.13973 13.1392C6.77788 13.1392 6.47155 12.9863 6.22073 12.6807C5.96991 12.375 5.8445 12.0017 5.8445 11.5608C5.8445 11.1199 5.96991 10.7466 6.22073 10.4409C6.47155 10.1353 6.77788 9.98245 7.13973 9.98245ZM5.25856 4.60852C5.00774 4.35297 4.88232 4.03793 4.88232 3.66401C4.88232 3.32453 4.97947 3.0358 5.17427 2.79716C5.37009 2.55978 5.60704 2.44141 5.88561 2.44141C6.13644 2.44141 6.33843 2.52659 6.49211 2.69695L13.328 8.88762C13.6488 9.17448 13.9099 9.55654 14.1114 10.0326C14.3128 10.5086 14.4136 11.0178 14.4136 11.5608C14.4136 12.07 14.3231 12.5535 14.1422 13.0114C13.9613 13.4705 13.7104 13.8444 13.3897 14.1338L6.59696 20.3245C6.49931 20.4259 6.39137 20.5105 6.27213 20.5775C6.15391 20.6458 6.02542 20.6802 5.88561 20.6802C5.60704 20.6802 5.37009 20.5606 5.17427 20.3219C4.97947 20.0846 4.88232 19.7965 4.88232 19.4576C4.88232 19.0499 5.01442 18.7273 5.27912 18.4905L11.7799 12.5554C11.892 12.4352 12.0143 12.2855 12.1459 12.107C12.2785 11.9297 12.3453 11.7475 12.3453 11.5608C12.3453 11.3735 12.2785 11.1906 12.1459 11.0121C12.0143 10.8349 11.892 10.6952 11.7799 10.5938L5.25856 4.60852Z" fill="url(#paint1_linear_559_1353)"/>
</g>
<mask id="mask2_559_1353" style="mask-type:luminance" maskUnits="userSpaceOnUse" x="22" y="24" width="114" height="18">
<path d="M136 24.2461H22.8809V41.1194H136V24.2461Z" fill="white"/>
</mask>
<g mask="url(#mask2_559_1353)">
<path d="M27.8129 33.0084C27.8129 32.7646 27.8827 32.5587 28.0224 32.3897C28.1621 32.2195 28.331 32.1344 28.5301 32.1344H34.2527C34.5019 32.1344 34.7359 32.1919 34.9548 32.3069C35.1738 32.4219 35.3649 32.58 35.5286 32.7807C35.6933 32.9802 35.8202 33.2171 35.9099 33.4914C35.999 33.7645 36.0439 34.052 36.0439 34.3539V34.7563C36.0439 35.0588 35.999 35.3469 35.9099 35.6211C35.8202 35.8943 35.6933 36.1312 35.5286 36.3318C35.3649 36.5314 35.1738 36.6883 34.9548 36.8033C34.7359 36.9183 34.5019 36.9758 34.2527 36.9758H26.4691C26.06 36.9758 25.6962 36.8551 25.3782 36.6124C25.0597 36.3704 24.7883 36.0581 24.5647 35.6763C24.3406 35.2934 24.1688 34.8656 24.0494 34.393C23.9296 33.9192 23.8701 33.458 23.8701 33.0084C23.8701 32.5472 23.9324 32.0832 24.057 31.6169C24.1815 31.1494 24.3632 30.7245 24.6024 30.3427C24.8412 29.9597 25.13 29.6469 25.4687 29.4043C25.8071 29.1605 26.1902 29.0386 26.6182 29.0386H35.3285C35.5272 29.0386 35.6956 29.1237 35.8344 29.2939C35.974 29.4641 36.0439 29.6705 36.0439 29.9126C36.0439 30.1552 35.974 30.3611 35.8344 30.5313C35.6956 30.7015 35.5272 30.7866 35.3285 30.7866H26.9466C26.5979 30.7866 26.3167 30.8625 26.1029 31.0143C25.8887 31.1661 25.7198 31.3518 25.5952 31.5709C25.4706 31.7888 25.3857 32.028 25.3404 32.2885C25.296 32.5495 25.2743 32.7893 25.2743 33.0084C25.2743 33.2263 25.296 33.4661 25.3404 33.7283C25.3857 33.9893 25.4706 34.2285 25.5952 34.4459C25.7198 34.6638 25.8887 34.8483 26.1029 35.0001C26.3167 35.1519 26.5979 35.2278 26.9466 35.2278H34.1923C34.3117 35.2278 34.4188 35.1611 34.5132 35.0277C34.6075 34.8943 34.6547 34.7374 34.6547 34.5563C34.6547 34.374 34.6123 34.2159 34.5283 34.0825C34.4438 33.9491 34.332 33.8824 34.1923 33.8824H28.5301C28.331 33.8824 28.1621 33.7973 28.0224 33.6271C27.8827 33.4569 27.8129 33.251 27.8129 33.0084Z" fill="#939597"/>
<path d="M48.3142 36.831C48.1641 37.0489 47.9801 37.1576 47.7612 37.1576C47.5611 37.1576 47.3912 37.0736 47.2516 36.9046C47.1128 36.7344 47.0439 36.5274 47.0439 36.2836C47.0439 36.0663 47.0935 35.8903 47.1931 35.7569L50.8225 29.8045C50.9924 29.5257 51.216 29.298 51.4944 29.1214C51.7738 28.9455 52.0725 28.8569 52.391 28.8569C52.6901 28.8569 52.9742 28.9363 53.2422 29.0938C53.5111 29.252 53.731 29.4705 53.9009 29.7493L57.5304 35.6649C57.5907 35.7512 57.6403 35.8455 57.6795 35.9478C57.7196 36.0507 57.7399 36.1629 57.7399 36.2836C57.7399 36.5274 57.67 36.7344 57.5304 36.9046C57.3907 37.0736 57.2213 37.1576 57.0226 37.1576C56.7834 37.1576 56.5942 37.0426 56.4545 36.8126L52.9742 31.15C52.9048 31.0534 52.8175 30.9476 52.7118 30.8326C52.6071 30.7176 52.5004 30.6601 52.391 30.6601C52.2815 30.6601 52.1744 30.7176 52.0701 30.8326C51.9653 30.9476 51.8837 31.0534 51.8247 31.15L48.3142 36.831Z" fill="#939597"/>
<path d="M81.3476 36.1018C81.3476 36.3456 81.2778 36.5526 81.1381 36.7228C80.9984 36.8919 80.829 36.9758 80.6304 36.9758C80.4313 36.9758 80.2623 36.8919 80.1227 36.7228C79.983 36.5526 79.9132 36.3456 79.9132 36.1018V32.1344C79.9132 31.6364 79.8886 31.3869 79.8396 31.3869C79.799 31.3869 79.6593 31.5513 79.4206 31.8791L76.1346 36.4307C76.0048 36.6119 75.8449 36.7481 75.6552 36.8401C75.4664 36.931 75.2626 36.9758 75.0437 36.9758C74.8247 36.9758 74.6199 36.931 74.4303 36.8401C74.2415 36.7481 74.082 36.6119 73.9528 36.4307L70.6668 31.8791C70.4375 31.5513 70.2978 31.3869 70.2478 31.3869C70.1987 31.3869 70.1742 31.6364 70.1742 32.1344V36.1018C70.1742 36.3456 70.1043 36.5526 69.9647 36.7228C69.825 36.8919 69.6556 36.9758 69.457 36.9758C69.2569 36.9758 69.087 36.8919 68.9474 36.7228C68.8086 36.5526 68.7397 36.3456 68.7397 36.1018V30.7866C68.7397 30.3024 68.8539 29.8896 69.0833 29.5492C69.3121 29.2088 69.6254 29.0386 70.0232 29.0386C70.2619 29.0386 70.4762 29.1116 70.6649 29.2571C70.8546 29.4031 71.0296 29.5791 71.1896 29.7861L74.6247 34.5563C74.6747 34.6161 74.737 34.6799 74.8115 34.7471C74.887 34.8133 74.9644 34.846 75.0437 34.846C75.1229 34.846 75.1994 34.8133 75.2739 34.7471C75.3494 34.6799 75.4117 34.6161 75.4608 34.5563L78.8826 29.7861H78.8977C79.0374 29.5549 79.2063 29.3721 79.4055 29.2387C79.6041 29.1053 79.823 29.0386 80.0623 29.0386C80.461 29.0386 80.7748 29.2088 81.0041 29.5492C81.2329 29.8896 81.3476 30.3024 81.3476 30.7866V36.1018Z" fill="#939597"/>
<path d="M92.3477 29.9126C92.3477 29.6705 92.4165 29.4641 92.5553 29.2939C92.6949 29.1237 92.8648 29.0386 93.0649 29.0386H103.655C103.855 29.0386 104.024 29.1237 104.163 29.2939C104.302 29.4641 104.372 29.6705 104.372 29.9126C104.372 30.1552 104.302 30.3611 104.163 30.5313C104.024 30.7015 103.855 30.7866 103.655 30.7866H93.0649C92.8648 30.7866 92.6949 30.7015 92.5553 30.5313C92.4165 30.3611 92.3477 30.1552 92.3477 29.9126ZM94.169 36.9758C93.9501 36.9758 93.7311 36.9183 93.5122 36.8033C93.2932 36.6883 93.0988 36.5285 92.929 36.3226C92.7601 36.1156 92.6213 35.8667 92.5119 35.5751C92.4024 35.2842 92.3477 34.9559 92.3477 34.5908V32.9532C92.3477 32.6254 92.4241 32.4069 92.5779 32.2977C92.7327 32.189 92.9743 32.1344 93.3027 32.1344H103.327C103.527 32.1344 103.696 32.2195 103.834 32.3897C103.974 32.5587 104.044 32.7646 104.044 33.0084C104.044 33.251 103.974 33.4569 103.834 33.6271C103.696 33.7973 103.527 33.8824 103.327 33.8824H93.7821V34.7724C93.7821 34.8955 93.8241 35.0019 93.9085 35.0921C93.9925 35.183 94.1048 35.2278 94.2445 35.2278H103.655C103.855 35.2278 104.024 35.3129 104.163 35.4831C104.302 35.6533 104.372 35.8598 104.372 36.1018C104.372 36.3456 104.302 36.5526 104.163 36.7228C104.024 36.8919 103.855 36.9758 103.655 36.9758H94.169Z" fill="#939597"/>
<path d="M117.358 33.8824C117.079 33.8824 116.821 33.8191 116.582 33.6915C116.343 33.5627 116.133 33.3896 115.953 33.1717C115.775 32.9543 115.633 32.6996 115.529 32.4081C115.424 32.1171 115.372 31.8009 115.372 31.4605C115.372 31.1201 115.424 30.8044 115.529 30.5129C115.633 30.2219 115.775 29.9672 115.953 29.7493C116.133 29.5302 116.343 29.3571 116.582 29.2295C116.821 29.1024 117.079 29.0386 117.358 29.0386H126.427C126.625 29.0386 126.795 29.1237 126.934 29.2939C127.074 29.4641 127.144 29.6705 127.144 29.9126C127.144 30.1552 127.074 30.3611 126.934 30.5313C126.795 30.7015 126.625 30.7866 126.427 30.7866H117.329C117.179 30.7866 117.047 30.8504 116.933 30.9775C116.818 31.1051 116.761 31.2661 116.761 31.4605C116.761 31.6433 116.818 31.8009 116.933 31.9343C117.047 32.0677 117.179 32.1344 117.329 32.1344H125.59C125.868 32.1344 126.129 32.1982 126.374 32.3253C126.618 32.4529 126.829 32.626 127.008 32.8451C127.188 33.063 127.33 33.3206 127.434 33.6179C127.539 33.9157 127.591 34.2337 127.591 34.5724C127.591 34.9127 127.539 35.229 127.434 35.5199C127.33 35.8115 127.188 36.0668 127.008 36.2858C126.829 36.5038 126.618 36.6734 126.374 36.7941C126.129 36.9155 125.868 36.9758 125.59 36.9758H116.537C116.337 36.9758 116.169 36.8919 116.029 36.7228C115.889 36.5526 115.819 36.3456 115.819 36.1018C115.819 35.8598 115.889 35.6533 116.029 35.4831C116.169 35.3129 116.337 35.2278 116.537 35.2278H125.649C125.799 35.2278 125.928 35.1646 126.038 35.0369C126.147 34.9099 126.202 34.7552 126.202 34.5724C126.202 34.3792 126.147 34.2159 126.038 34.0825C125.928 33.9491 125.799 33.8824 125.649 33.8824H117.358Z" fill="#939597"/>
</g>
<defs>
<linearGradient id="paint0_linear_559_1353" x1="10.4619" y1="18.5835" x2="10.4619" y2="36.8223" gradientUnits="userSpaceOnUse">
<stop stop-color="#DF3F32"/>
<stop offset="1" stop-color="#196427"/>
</linearGradient>
<linearGradient id="paint1_linear_559_1353" x1="9.64795" y1="2.44141" x2="9.64795" y2="20.6802" gradientUnits="userSpaceOnUse">
<stop stop-color="#DF3F32"/>
<stop offset="1" stop-color="#196427"/>
</linearGradient>
</defs>
</svg>
