<svg width="126" height="38" viewBox="0 0 126 38" fill="none" xmlns="http://www.w3.org/2000/svg">
<path d="M24.8628 19.5061C24.8628 20.1593 24.6745 20.7153 24.2985 21.1736C23.9233 21.6307 23.468 21.859 22.932 21.859C22.3959 21.859 21.9397 21.6307 21.5636 21.1736C21.1885 20.7153 21.0012 20.1593 21.0012 19.5061V2.84264C21.0012 2.18944 21.1885 1.63457 21.5636 1.17744C21.9397 0.71917 22.3959 0.489746 22.932 0.489746C23.468 0.489746 23.9233 0.71917 24.2985 1.17744C24.6745 1.63457 24.8628 2.18944 24.8628 2.84264V19.5061Z" fill="white"/>
<path d="M40.7689 17.0544C40.7689 16.2052 41.0095 15.487 41.4918 14.8993C41.9749 14.3105 42.5648 14.0161 43.2622 14.0161C43.9591 14.0161 44.5484 14.3105 45.0306 14.8993C45.5138 15.487 45.7554 16.2052 45.7554 17.0544C45.7554 17.9043 45.5138 18.623 45.0306 19.2118C44.5484 19.7995 43.9591 20.0927 43.2622 20.0927C42.5648 20.0927 41.9749 19.7995 41.4918 19.2118C41.0095 18.623 40.7689 17.9043 40.7689 17.0544ZM32.2831 21.4658C31.8802 22.0546 31.3838 22.349 30.794 22.349C30.2579 22.349 29.8017 22.1207 29.4256 21.6636C29.0505 21.2053 28.8632 20.6493 28.8632 19.9961C28.8632 19.4073 28.9972 18.9335 29.2652 18.5747L39.0381 2.54839C39.4949 1.79744 40.0979 1.18449 40.8482 0.710697C41.5993 0.236899 42.4039 0 43.2622 0C44.0662 0 44.8296 0.212749 45.5535 0.637097C46.2782 1.06202 46.868 1.65024 47.3238 2.40119L57.0968 18.3286C57.2563 18.5575 57.3898 18.811 57.4969 19.0899C57.605 19.3676 57.6593 19.6695 57.6593 19.9961C57.6593 20.6493 57.471 21.2053 57.0949 21.6636C56.7198 22.1207 56.2645 22.349 55.7284 22.349C55.0853 22.349 54.5757 22.0385 54.1996 21.4175L44.8306 6.17547C44.6428 5.91327 44.4083 5.6275 44.1266 5.31758C43.8444 5.00823 43.5566 4.85298 43.2622 4.85298C42.9663 4.85298 42.6775 5.00823 42.3958 5.31758C42.1151 5.6275 41.8943 5.91327 41.7334 6.17547L32.2831 21.4658Z" fill="white"/>
<path d="M87.5178 13.5261C88.2426 14.0815 88.9796 14.6778 89.7298 15.3155C90.481 15.952 91.2454 16.646 92.023 17.397C92.3175 17.6592 92.5713 17.9622 92.7856 18.3055C93.0007 18.6476 93.1083 19.0478 93.1083 19.5061C93.1083 20.1593 92.9205 20.7153 92.5459 21.1736C92.1707 21.6307 91.7144 21.859 91.1775 21.859C90.7217 21.859 90.2663 21.6301 89.811 21.1713C88.7111 20.1915 87.5848 19.245 86.4326 18.3308C85.2798 17.4154 84.0799 16.5983 82.8333 15.879C81.5862 15.1602 80.2919 14.5881 78.9509 14.1632C77.6108 13.7388 76.217 13.5261 74.7703 13.5261H66.7677C66.419 13.5922 66.1241 13.7883 65.8825 14.1149C65.6409 14.4415 65.5201 14.8503 65.5201 15.3408V19.5061C65.5201 20.1593 65.3257 20.7153 64.9369 21.1736C64.5481 21.6307 64.0989 21.859 63.5893 21.859C63.0533 21.859 62.597 21.6307 62.221 21.1736C61.8458 20.7153 61.6585 20.1593 61.6585 19.5061V14.8003C61.6585 13.9832 61.7854 13.2075 62.0398 12.4727C62.295 11.7384 62.6371 11.1013 63.0665 10.5614C63.4954 10.0221 64.005 9.59713 64.5953 9.28721C65.1851 8.97786 65.8287 8.82261 66.5261 8.82261H87.8406C88.243 8.82261 88.5983 8.65126 88.9069 8.30741C89.2151 7.96414 89.3694 7.53117 89.3694 7.00792C89.3694 6.51917 89.2151 6.09482 88.9069 5.73602C88.5983 5.37607 88.243 5.19553 87.8406 5.19553H63.5893C63.0533 5.19553 62.597 4.96725 62.221 4.51013C61.8458 4.05186 61.6585 3.49583 61.6585 2.84264C61.6585 2.18944 61.8458 1.63457 62.221 1.17744C62.597 0.71917 63.0533 0.489746 63.5893 0.489746H87.6801C88.4299 0.489746 89.1334 0.66167 89.7902 1.00494C90.4471 1.34879 91.0232 1.81454 91.5191 2.40334C92.016 2.99099 92.4048 3.67696 92.6855 4.46183C92.9672 5.24555 93.1083 6.09425 93.1083 7.00792C93.1083 7.92331 92.9672 8.77373 92.6855 9.55861C92.4048 10.3423 92.016 11.0283 91.5191 11.6171C91.0232 12.2047 90.4471 12.6699 89.7902 13.0132C89.1334 13.3553 88.4299 13.5261 87.6801 13.5261H87.5178Z" fill="white"/>
<path d="M109.015 17.0544C109.015 16.2052 109.255 15.487 109.738 14.8993C110.221 14.3105 110.811 14.0161 111.508 14.0161C112.205 14.0161 112.794 14.3105 113.277 14.8993C113.76 15.487 114.001 16.2052 114.001 17.0544C114.001 17.9043 113.76 18.623 113.277 19.2118C112.794 19.7995 112.205 20.0927 111.508 20.0927C110.811 20.0927 110.221 19.7995 109.738 19.2118C109.255 18.623 109.015 17.9043 109.015 17.0544ZM100.529 21.4658C100.126 22.0546 99.6297 22.349 99.0399 22.349C98.5038 22.349 98.0476 22.1207 97.6715 21.6636C97.2964 21.2053 97.109 20.6493 97.109 19.9961C97.109 19.4073 97.243 18.9335 97.5111 18.5747L107.284 2.54839C107.741 1.79744 108.344 1.18449 109.094 0.710697C109.845 0.236899 110.65 0 111.508 0C112.312 0 113.076 0.212749 113.799 0.637097C114.524 1.06202 115.114 1.65024 115.57 2.40119L125.343 18.3286C125.502 18.5575 125.636 18.811 125.743 19.0899C125.851 19.3676 125.905 19.6695 125.905 19.9961C125.905 20.6493 125.717 21.2053 125.341 21.6636C124.966 22.1207 124.51 22.349 123.974 22.349C123.331 22.349 122.822 22.0385 122.446 21.4175L113.076 6.17547C112.889 5.91327 112.654 5.6275 112.372 5.31758C112.09 5.00823 111.802 4.85298 111.508 4.85298C111.212 4.85298 110.923 5.00823 110.642 5.31758C110.361 5.6275 110.14 5.91327 109.979 6.17547L100.529 21.4658Z" fill="white"/>
<mask id="mask0_361_1213" style="mask-type:luminance" maskUnits="userSpaceOnUse" x="0" y="1" width="16" height="35">
<path d="M0.52655 1.6377H15.2333V35.1671H0.52655V1.6377Z" fill="white"/>
</mask>
<g mask="url(#mask0_361_1213)">
<mask id="mask1_361_1213" style="mask-type:luminance" maskUnits="userSpaceOnUse" x="0" y="1" width="16" height="35">
<path d="M0.526794 30.7195V6.09987C0.526794 4.92047 0.91142 3.78936 1.59574 2.95496C2.28006 2.12105 3.20866 1.65234 4.17649 1.65234H11.5839C12.5517 1.65234 13.4803 2.12105 14.1646 2.95496C14.8489 3.78936 15.2336 4.92047 15.2336 6.09987V30.7195C15.2336 31.8993 14.8489 33.0305 14.1646 33.8644C13.4803 34.6988 12.5517 35.167 11.5839 35.167H4.17649C3.20866 35.167 2.28006 34.6988 1.59574 33.8644C0.91142 33.0305 0.526794 31.8993 0.526794 30.7195Z" fill="white"/>
</mask>
<g mask="url(#mask1_361_1213)">
<mask id="mask2_361_1213" style="mask-type:luminance" maskUnits="userSpaceOnUse" x="0" y="1" width="16" height="35">
<path d="M15.3236 1.6377H0.517761V35.1992H15.3236V1.6377Z" fill="white"/>
</mask>
<g mask="url(#mask2_361_1213)">
<mask id="mask3_361_1213" style="mask-type:luminance" maskUnits="userSpaceOnUse" x="0" y="1" width="16" height="35">
<path d="M0.527405 1.64258H15.2342V35.1671H0.527405V1.64258Z" fill="white"/>
</mask>
<g mask="url(#mask3_361_1213)">
<mask id="mask4_361_1213" style="mask-type:luminance" maskUnits="userSpaceOnUse" x="0" y="1" width="16" height="35">
<path d="M0.527649 30.7195V6.09987C0.527649 4.92047 0.912275 3.78936 1.59659 2.95496C2.28091 2.12105 3.20951 1.65234 4.17735 1.65234H11.5847C12.5526 1.65234 13.4812 2.12105 14.1655 2.95496C14.8498 3.78936 15.2344 4.92047 15.2344 6.09987V30.7195C15.2344 31.8993 14.8498 33.0305 14.1655 33.8644C13.4812 34.6988 12.5526 35.167 11.5847 35.167H4.17735C3.20951 35.167 2.28091 34.6988 1.59659 33.8644C0.912275 33.0305 0.527649 31.8993 0.527649 30.7195Z" fill="white"/>
</mask>
<g mask="url(#mask4_361_1213)">
<path d="M0.527527 35.1667V1.6333H15.2343V35.1667H0.527527Z" fill="#DF3F32"/>
</g>
</g>
</g>
</g>
</g>
<mask id="mask5_361_1213" style="mask-type:luminance" maskUnits="userSpaceOnUse" x="0" y="16" width="16" height="18">
<path d="M15.7377 16.7778H0V33.4324H15.7377V16.7778Z" fill="white"/>
</mask>
<g mask="url(#mask5_361_1213)">
<path d="M10.2058 26.3603C9.92026 26.3603 9.6784 26.2401 9.48104 25.9996C9.28367 25.7591 9.18498 25.4653 9.18498 25.1184C9.18498 24.7714 9.28367 24.4776 9.48104 24.2371C9.6784 23.9966 9.92026 23.8764 10.2058 23.8764C10.4905 23.8764 10.7316 23.9966 10.9289 24.2371C11.1263 24.4776 11.225 24.7714 11.225 25.1184C11.225 25.4653 11.1263 25.7591 10.9289 25.9996C10.7316 26.2401 10.4905 26.3603 10.2058 26.3603ZM11.6861 30.589C11.8834 30.7901 11.9821 31.038 11.9821 31.3323C11.9821 31.5994 11.9057 31.8266 11.7524 32.0144C11.5983 32.2012 11.4118 32.2943 11.1926 32.2943C10.9953 32.2943 10.8363 32.2273 10.7154 32.0932L5.3363 27.2219C5.08393 26.9961 4.87847 26.6955 4.71993 26.3209C4.56139 25.9463 4.48212 25.5457 4.48212 25.1184C4.48212 24.7177 4.5533 24.3372 4.69566 23.9769C4.83803 23.6156 5.0354 23.3214 5.28777 23.0937L10.6329 18.2223C10.7097 18.1425 10.7947 18.0759 10.8885 18.0232C10.9815 17.9695 11.0826 17.9424 11.1926 17.9424C11.4118 17.9424 11.5983 18.0365 11.7524 18.2243C11.9057 18.4111 11.9821 18.6378 11.9821 18.9044C11.9821 19.2253 11.8782 19.4791 11.6699 19.6654L6.55448 24.3357C6.46632 24.4303 6.37006 24.5481 6.26652 24.6886C6.16217 24.8281 6.1096 24.9715 6.1096 25.1184C6.1096 25.2657 6.16217 25.4096 6.26652 25.5501C6.37006 25.6896 6.46632 25.7995 6.55448 25.8793L11.6861 30.589Z" fill="black"/>
</g>
<mask id="mask6_361_1213" style="mask-type:luminance" maskUnits="userSpaceOnUse" x="0" y="4" width="16" height="17">
<path d="M15.7377 4.03467H0V20.6892H15.7377V4.03467Z" fill="white"/>
</mask>
<g mask="url(#mask6_361_1213)">
<path d="M5.61768 11.1742C5.90322 11.1742 6.14508 11.2945 6.34245 11.535C6.53982 11.7755 6.6385 12.0692 6.6385 12.4162C6.6385 12.7632 6.53982 13.0569 6.34245 13.2974C6.14508 13.5379 5.90322 13.6582 5.61768 13.6582C5.33296 13.6582 5.09191 13.5379 4.89454 13.2974C4.69717 13.0569 4.59849 12.7632 4.59849 12.4162C4.59849 12.0692 4.69717 11.7755 4.89454 11.535C5.09191 11.2945 5.33296 11.1742 5.61768 11.1742ZM4.13742 6.94551C3.94005 6.74443 3.84137 6.49652 3.84137 6.20229C3.84137 5.93516 3.91781 5.70795 4.07109 5.52018C4.22519 5.33338 4.41163 5.24023 4.63084 5.24023C4.82821 5.24023 4.98716 5.30726 5.10809 5.44132L10.4872 10.3127C10.7396 10.5384 10.945 10.8391 11.1036 11.2136C11.2621 11.5882 11.3414 11.9889 11.3414 12.4162C11.3414 12.8169 11.2702 13.1974 11.1278 13.5577C10.9855 13.9189 10.7881 14.2132 10.5357 14.4409L5.19059 19.3122C5.11375 19.3921 5.02882 19.4586 4.93498 19.5113C4.84196 19.5651 4.74085 19.5922 4.63084 19.5922C4.41163 19.5922 4.22519 19.498 4.07109 19.3103C3.91781 19.1235 3.84137 18.8968 3.84137 18.6301C3.84137 18.3093 3.94531 18.0554 4.1536 17.8692L9.269 13.1989C9.35717 13.1042 9.45343 12.9864 9.55696 12.846C9.66131 12.7065 9.71389 12.5631 9.71389 12.4162C9.71389 12.2688 9.66131 12.1249 9.55696 11.9845C9.45343 11.845 9.35717 11.7351 9.269 11.6552L4.13742 6.94551Z" fill="black"/>
</g>
<mask id="mask7_361_1213" style="mask-type:luminance" maskUnits="userSpaceOnUse" x="20" y="22" width="100" height="16">
<path d="M119.999 22.708H20.189V37.5962H119.999V22.708Z" fill="white"/>
</mask>
<g mask="url(#mask7_361_1213)">
<path d="M25.0044 30.9278C25.0044 30.684 25.0742 30.4781 25.2139 30.3091C25.3535 30.1389 25.5225 30.0538 25.7216 30.0538H31.4442C31.6933 30.0538 31.9274 30.1113 32.1463 30.2263C32.3652 30.3413 32.5563 30.4994 32.7201 30.7001C32.8847 30.8996 33.0117 31.1365 33.1013 31.4108C33.1905 31.6839 33.2353 31.9714 33.2353 32.2733V32.6758C33.2353 32.9782 33.1905 33.2663 33.1013 33.5406C33.0117 33.8137 32.8847 34.0506 32.7201 34.2513C32.5563 34.4508 32.3652 34.6078 32.1463 34.7228C31.9274 34.8378 31.6933 34.8953 31.4442 34.8953H23.6605C23.2514 34.8953 22.8876 34.7745 22.5696 34.5319C22.2511 34.2898 21.9798 33.9776 21.7561 33.5958C21.532 33.2128 21.3603 32.785 21.2409 32.3124C21.121 31.8386 21.0616 31.3774 21.0616 30.9278C21.0616 30.4666 21.1239 30.0026 21.2484 29.5363C21.373 29.0688 21.5547 28.6439 21.7939 28.2621C22.0327 27.8792 22.3214 27.5664 22.6602 27.3237C22.9985 27.0799 23.3817 26.958 23.8096 26.958H32.52C32.7187 26.958 32.8871 27.0431 33.0258 27.2133C33.1655 27.3835 33.2353 27.5899 33.2353 27.832C33.2353 28.0747 33.1655 28.2805 33.0258 28.4507C32.8871 28.6209 32.7187 28.706 32.52 28.706H24.1381C23.7894 28.706 23.5081 28.7819 23.2944 28.9337C23.0802 29.0855 22.9112 29.2712 22.7867 29.4903C22.6621 29.7082 22.5772 29.9474 22.5319 30.2079C22.4875 30.4689 22.4658 30.7087 22.4658 30.9278C22.4658 31.1457 22.4875 31.3855 22.5319 31.6477C22.5772 31.9087 22.6621 32.1479 22.7867 32.3653C22.9112 32.5832 23.0802 32.7678 23.2944 32.9196C23.5081 33.0714 23.7894 33.1473 24.1381 33.1473H31.3838C31.5032 33.1473 31.6103 33.0806 31.7046 32.9472C31.799 32.8138 31.8462 32.6568 31.8462 32.4757C31.8462 32.2934 31.8037 32.1353 31.7197 32.0019C31.6353 31.8685 31.5235 31.8018 31.3838 31.8018H25.7216C25.5225 31.8018 25.3535 31.7167 25.2139 31.5465C25.0742 31.3763 25.0044 31.1704 25.0044 30.9278Z" fill="#939597"/>
<path d="M45.506 34.7504C45.356 34.9684 45.1719 35.077 44.953 35.077C44.7529 35.077 44.5831 34.9931 44.4434 34.824C44.3047 34.6538 44.2358 34.4468 44.2358 34.203C44.2358 33.9857 44.2853 33.8097 44.3849 33.6763L48.0144 27.724C48.1842 27.4451 48.4079 27.2174 48.6863 27.0409C48.9656 26.8649 49.2643 26.7764 49.5828 26.7764C49.8819 26.7764 50.166 26.8557 50.434 27.0133C50.703 27.1714 50.9228 27.3899 51.0927 27.6688L54.7222 33.5843C54.7826 33.6706 54.8321 33.7649 54.8713 33.8672C54.9114 33.9702 54.9317 34.0823 54.9317 34.203C54.9317 34.4468 54.8619 34.6538 54.7222 34.824C54.5825 34.9931 54.4131 35.077 54.2145 35.077C53.9752 35.077 53.786 34.962 53.6464 34.732L50.166 29.0695C50.0966 28.9729 50.0093 28.8671 49.9036 28.7521C49.7989 28.6371 49.6923 28.5796 49.5828 28.5796C49.4733 28.5796 49.3662 28.6371 49.2619 28.7521C49.1572 28.8671 49.0756 28.9729 49.0166 29.0695L45.506 34.7504Z" fill="#939597"/>
<path d="M78.5395 34.0213C78.5395 34.2651 78.4697 34.4721 78.33 34.6423C78.1903 34.8113 78.0209 34.8953 77.8223 34.8953C77.6232 34.8953 77.4542 34.8113 77.3146 34.6423C77.1749 34.4721 77.1051 34.2651 77.1051 34.0213V30.0538C77.1051 29.5558 77.0805 29.3063 77.0315 29.3063C76.9909 29.3063 76.8512 29.4707 76.6124 29.7985L73.3265 34.3502C73.1967 34.5313 73.0368 34.6676 72.8471 34.7596C72.6583 34.8504 72.4545 34.8953 72.2356 34.8953C72.0166 34.8953 71.8118 34.8504 71.6222 34.7596C71.4334 34.6676 71.2739 34.5313 71.1446 34.3502L67.8587 29.7985C67.6294 29.4707 67.4897 29.3063 67.4397 29.3063C67.3906 29.3063 67.3661 29.5558 67.3661 30.0538V34.0213C67.3661 34.2651 67.2962 34.4721 67.1566 34.6423C67.0169 34.8113 66.8475 34.8953 66.6489 34.8953C66.4488 34.8953 66.2789 34.8113 66.1393 34.6423C66.0005 34.4721 65.9316 34.2651 65.9316 34.0213V28.706C65.9316 28.2219 66.0458 27.809 66.2751 27.4686C66.504 27.1282 66.8173 26.958 67.2151 26.958C67.4538 26.958 67.6681 27.031 67.8568 27.1765C68.0465 27.3226 68.2215 27.4985 68.3815 27.7055L71.8166 32.4757C71.8666 32.5355 71.9289 32.5993 72.0034 32.6666C72.0789 32.7327 72.1563 32.7655 72.2356 32.7655C72.3148 32.7655 72.3913 32.7327 72.4658 32.6666C72.5413 32.5993 72.6036 32.5355 72.6527 32.4757L76.0745 27.7055H76.0896C76.2293 27.4744 76.3982 27.2915 76.5974 27.1581C76.796 27.0247 77.0149 26.958 77.2542 26.958C77.6529 26.958 77.9667 27.1282 78.196 27.4686C78.4248 27.809 78.5395 28.2219 78.5395 28.706V34.0213Z" fill="#939597"/>
<path d="M89.5391 27.832C89.5391 27.5899 89.608 27.3835 89.7467 27.2133C89.8864 27.0431 90.0562 26.958 90.2563 26.958H100.847C101.047 26.958 101.216 27.0431 101.354 27.2133C101.494 27.3835 101.564 27.5899 101.564 27.832C101.564 28.0747 101.494 28.2805 101.354 28.4507C101.216 28.6209 101.047 28.706 100.847 28.706H90.2563C90.0562 28.706 89.8864 28.6209 89.7467 28.4507C89.608 28.2805 89.5391 28.0747 89.5391 27.832ZM91.3604 34.8953C91.1415 34.8953 90.9226 34.8378 90.7036 34.7228C90.4847 34.6078 90.2903 34.4479 90.1204 34.2421C89.9515 34.0351 89.8128 33.7861 89.7033 33.4946C89.5938 33.2036 89.5391 32.8753 89.5391 32.5102V30.8726C89.5391 30.5448 89.6155 30.3263 89.7694 30.2171C89.9241 30.1084 90.1657 30.0538 90.4941 30.0538H100.518C100.718 30.0538 100.887 30.1389 101.026 30.3091C101.165 30.4781 101.235 30.684 101.235 30.9278C101.235 31.1704 101.165 31.3763 101.026 31.5465C100.887 31.7167 100.718 31.8018 100.518 31.8018H90.9735V32.6919C90.9735 32.8149 91.0155 32.9213 91.1 33.0116C91.184 33.1024 91.2963 33.1473 91.4359 33.1473H100.847C101.047 33.1473 101.216 33.2324 101.354 33.4026C101.494 33.5728 101.564 33.7792 101.564 34.0213C101.564 34.2651 101.494 34.4721 101.354 34.6423C101.216 34.8113 101.047 34.8953 100.847 34.8953H91.3604Z" fill="#939597"/>
<path d="M114.549 31.8018C114.271 31.8018 114.012 31.7385 113.774 31.6109C113.534 31.4821 113.325 31.309 113.145 31.0911C112.966 30.8737 112.825 30.619 112.72 30.3275C112.616 30.0365 112.564 29.7203 112.564 29.3799C112.564 29.0395 112.616 28.7238 112.72 28.4323C112.825 28.1414 112.966 27.8866 113.145 27.6687C113.325 27.4496 113.534 27.2766 113.774 27.1489C114.012 27.0218 114.271 26.958 114.549 26.958H123.618C123.817 26.958 123.986 27.0431 124.126 27.2133C124.266 27.3835 124.336 27.5899 124.336 27.832C124.336 28.0747 124.266 28.2805 124.126 28.4507C123.986 28.6209 123.817 28.706 123.618 28.706H114.521C114.371 28.706 114.239 28.7698 114.125 28.8969C114.01 29.0245 113.953 29.1855 113.953 29.3799C113.953 29.5627 114.01 29.7203 114.125 29.8537C114.239 29.9871 114.371 30.0538 114.521 30.0538H122.782C123.06 30.0538 123.321 30.1176 123.565 30.2447C123.809 30.3723 124.021 30.5454 124.2 30.7645C124.379 30.9824 124.521 31.24 124.626 31.5373C124.73 31.8351 124.783 32.1531 124.783 32.4918C124.783 32.8322 124.73 33.1484 124.626 33.4394C124.521 33.7309 124.379 33.9862 124.2 34.2053C124.021 34.4232 123.809 34.5928 123.565 34.7136C123.321 34.8349 123.06 34.8953 122.782 34.8953H113.728C113.529 34.8953 113.36 34.8113 113.221 34.6423C113.081 34.4721 113.011 34.2651 113.011 34.0213C113.011 33.7792 113.081 33.5728 113.221 33.4026C113.36 33.2324 113.529 33.1473 113.728 33.1473H122.841C122.99 33.1473 123.12 33.084 123.229 32.9564C123.339 32.8293 123.394 32.6746 123.394 32.4918C123.394 32.2986 123.339 32.1353 123.229 32.0019C123.12 31.8685 122.99 31.8018 122.841 31.8018H114.549Z" fill="#939597"/>
</g>
</svg>
