<svg width="17" height="589" viewBox="0 0 17 589" fill="none" xmlns="http://www.w3.org/2000/svg">
<path d="M3.78947 12.8173C4.39862 12.8173 4.91458 13.0771 5.33563 13.5966C5.75669 14.1161 5.96721 14.7506 5.96721 15.5C5.96721 16.2495 5.75669 16.8839 5.33563 17.4034C4.91458 17.9229 4.39862 18.1827 3.78947 18.1827C3.18205 18.1827 2.66782 17.9229 2.24676 17.4034C1.82571 16.8839 1.61519 16.2495 1.61519 15.5C1.61519 14.7506 1.82571 14.1161 2.24676 13.5966C2.66782 13.0771 3.18205 12.8173 3.78947 12.8173ZM0.631579 3.68338C0.210526 3.24904 0 2.71356 0 2.07802C0 1.50103 0.163072 1.01027 0.490078 0.60467C0.818809 0.201202 1.21657 0 1.68421 0C2.10526 0 2.44435 0.14478 2.70233 0.434341L14.1777 10.9565C14.7161 11.444 15.1544 12.0934 15.4927 12.9025C15.8309 13.7115 16 14.577 16 15.5C16 16.3655 15.8481 17.1873 15.5444 17.9655C15.2407 18.7458 14.8197 19.3814 14.2813 19.8732L2.87834 30.3953C2.71441 30.5678 2.53322 30.7115 2.33305 30.8254C2.1346 30.9415 1.9189 31 1.68421 31C1.21657 31 0.818809 30.7967 0.490078 30.3911C0.163072 29.9876 0 29.4979 0 28.922C0 28.229 0.221743 27.6807 0.666092 27.2783L11.5789 17.1905C11.767 16.9861 11.9724 16.7317 12.1933 16.4283C12.4159 16.127 12.528 15.8172 12.528 15.5C12.528 15.1817 12.4159 14.8708 12.1933 14.5674C11.9724 14.2662 11.767 14.0288 11.5789 13.8563L0.631579 3.68338Z" fill="url(#paint0_linear_533_1060)"/>
<path d="M12.2105 49.1827C11.6014 49.1827 11.0854 48.9229 10.6644 48.4034C10.2433 47.8839 10.0328 47.2495 10.0328 46.5C10.0328 45.7506 10.2433 45.1161 10.6644 44.5966C11.0854 44.0771 11.6014 43.8173 12.2105 43.8173C12.8179 43.8173 13.3322 44.0771 13.7532 44.5966C14.1743 45.1161 14.3848 45.7506 14.3848 46.5C14.3848 47.2495 14.1743 47.8839 13.7532 48.4034C13.3322 48.9229 12.8179 49.1827 12.2105 49.1827ZM15.3684 58.3166C15.7895 58.751 16 59.2864 16 59.922C16 60.499 15.8369 60.9897 15.5099 61.3953C15.1812 61.7988 14.7834 62 14.3158 62C13.8947 62 13.5557 61.8552 13.2977 61.5657L1.82226 51.0435C1.28387 50.556 0.845557 49.9066 0.507334 49.0975C0.169111 48.2885 0 47.423 0 46.5C0 45.6345 0.151855 44.8127 0.455565 44.0345C0.759275 43.2542 1.18033 42.6186 1.71872 42.1268L13.1217 31.6047C13.2856 31.4322 13.4668 31.2885 13.667 31.1746C13.8654 31.0586 14.0811 31 14.3158 31C14.7834 31 15.1812 31.2033 15.5099 31.6089C15.8369 32.0124 16 32.5021 16 33.078C16 33.7711 15.7783 34.3193 15.3339 34.7217L4.42105 44.8095C4.23296 45.0139 4.02761 45.2683 3.80673 45.5717C3.58412 45.873 3.47196 46.1828 3.47196 46.5C3.47196 46.8183 3.58412 47.1292 3.80673 47.4326C4.02761 47.7338 4.23296 47.9712 4.42105 48.1437L15.3684 58.3166Z" fill="url(#paint1_linear_533_1060)"/>
<path d="M3.78947 74.8173C4.39862 74.8173 4.91458 75.0771 5.33563 75.5966C5.75669 76.1161 5.96721 76.7506 5.96721 77.5C5.96721 78.2495 5.75669 78.8839 5.33563 79.4034C4.91458 79.9229 4.39862 80.1827 3.78947 80.1827C3.18205 80.1827 2.66782 79.9229 2.24676 79.4034C1.82571 78.8839 1.61519 78.2495 1.61519 77.5C1.61519 76.7506 1.82571 76.1161 2.24676 75.5966C2.66782 75.0771 3.18205 74.8173 3.78947 74.8173ZM0.631579 65.6834C0.210526 65.249 0 64.7136 0 64.078C0 63.501 0.163072 63.0103 0.490078 62.6047C0.818809 62.2012 1.21657 62 1.68421 62C2.10526 62 2.44435 62.1448 2.70233 62.4343L14.1777 72.9565C14.7161 73.444 15.1544 74.0934 15.4927 74.9025C15.8309 75.7115 16 76.577 16 77.5C16 78.3655 15.8481 79.1873 15.5444 79.9655C15.2407 80.7458 14.8197 81.3814 14.2813 81.8732L2.87834 92.3953C2.71441 92.5678 2.53322 92.7115 2.33305 92.8254C2.1346 92.9415 1.9189 93 1.68421 93C1.21657 93 0.818809 92.7967 0.490078 92.3911C0.163072 91.9876 0 91.4979 0 90.922C0 90.229 0.221743 89.6807 0.666092 89.2783L11.5789 79.1905C11.767 78.9861 11.9724 78.7317 12.1933 78.4283C12.4159 78.127 12.528 77.8172 12.528 77.5C12.528 77.1817 12.4159 76.8708 12.1933 76.5674C11.9724 76.2662 11.767 76.0288 11.5789 75.8563L0.631579 65.6834Z" fill="url(#paint2_linear_533_1060)"/>
<path d="M12.2105 111.183C11.6014 111.183 11.0854 110.923 10.6644 110.403C10.2433 109.884 10.0328 109.249 10.0328 108.5C10.0328 107.751 10.2433 107.116 10.6644 106.597C11.0854 106.077 11.6014 105.817 12.2105 105.817C12.8179 105.817 13.3322 106.077 13.7532 106.597C14.1743 107.116 14.3848 107.751 14.3848 108.5C14.3848 109.249 14.1743 109.884 13.7532 110.403C13.3322 110.923 12.8179 111.183 12.2105 111.183ZM15.3684 120.317C15.7895 120.751 16 121.286 16 121.922C16 122.499 15.8369 122.99 15.5099 123.395C15.1812 123.799 14.7834 124 14.3158 124C13.8947 124 13.5557 123.855 13.2977 123.566L1.82226 113.044C1.28387 112.556 0.845557 111.907 0.507334 111.098C0.169111 110.288 0 109.423 0 108.5C0 107.635 0.151855 106.813 0.455565 106.034C0.759275 105.254 1.18033 104.619 1.71872 104.127L13.1217 93.6047C13.2856 93.4322 13.4668 93.2885 13.667 93.1746C13.8654 93.0586 14.0811 93 14.3158 93C14.7834 93 15.1812 93.2033 15.5099 93.6089C15.8369 94.0124 16 94.5021 16 95.078C16 95.7711 15.7783 96.3193 15.3339 96.7217L4.42105 106.809C4.23296 107.014 4.02761 107.268 3.80673 107.572C3.58412 107.873 3.47196 108.183 3.47196 108.5C3.47196 108.818 3.58412 109.129 3.80673 109.433C4.02761 109.734 4.23296 109.971 4.42105 110.144L15.3684 120.317Z" fill="url(#paint3_linear_533_1060)"/>
<path d="M3.78947 136.817C4.39862 136.817 4.91458 137.077 5.33563 137.597C5.75669 138.116 5.96721 138.751 5.96721 139.5C5.96721 140.249 5.75669 140.884 5.33563 141.403C4.91458 141.923 4.39862 142.183 3.78947 142.183C3.18205 142.183 2.66782 141.923 2.24676 141.403C1.82571 140.884 1.61519 140.249 1.61519 139.5C1.61519 138.751 1.82571 138.116 2.24676 137.597C2.66782 137.077 3.18205 136.817 3.78947 136.817ZM0.631579 127.683C0.210526 127.249 0 126.714 0 126.078C0 125.501 0.163072 125.01 0.490078 124.605C0.818809 124.201 1.21657 124 1.68421 124C2.10526 124 2.44435 124.145 2.70233 124.434L14.1777 134.956C14.7161 135.444 15.1544 136.093 15.4927 136.902C15.8309 137.712 16 138.577 16 139.5C16 140.365 15.8481 141.187 15.5444 141.966C15.2407 142.746 14.8197 143.381 14.2813 143.873L2.87834 154.395C2.71441 154.568 2.53322 154.712 2.33305 154.825C2.1346 154.941 1.9189 155 1.68421 155C1.21657 155 0.818809 154.797 0.490078 154.391C0.163072 153.988 0 153.498 0 152.922C0 152.229 0.221743 151.681 0.666092 151.278L11.5789 141.191C11.767 140.986 11.9724 140.732 12.1933 140.428C12.4159 140.127 12.528 139.817 12.528 139.5C12.528 139.182 12.4159 138.871 12.1933 138.567C11.9724 138.266 11.767 138.029 11.5789 137.856L0.631579 127.683Z" fill="url(#paint4_linear_533_1060)"/>
<path d="M12.2105 173.183C11.6014 173.183 11.0854 172.923 10.6644 172.403C10.2433 171.884 10.0328 171.249 10.0328 170.5C10.0328 169.751 10.2433 169.116 10.6644 168.597C11.0854 168.077 11.6014 167.817 12.2105 167.817C12.8179 167.817 13.3322 168.077 13.7532 168.597C14.1743 169.116 14.3848 169.751 14.3848 170.5C14.3848 171.249 14.1743 171.884 13.7532 172.403C13.3322 172.923 12.8179 173.183 12.2105 173.183ZM15.3684 182.317C15.7895 182.751 16 183.286 16 183.922C16 184.499 15.8369 184.99 15.5099 185.395C15.1812 185.799 14.7834 186 14.3158 186C13.8947 186 13.5557 185.855 13.2977 185.566L1.82226 175.044C1.28387 174.556 0.845557 173.907 0.507334 173.098C0.169111 172.288 0 171.423 0 170.5C0 169.635 0.151855 168.813 0.455565 168.034C0.759275 167.254 1.18033 166.619 1.71872 166.127L13.1217 155.605C13.2856 155.432 13.4668 155.288 13.667 155.175C13.8654 155.059 14.0811 155 14.3158 155C14.7834 155 15.1812 155.203 15.5099 155.609C15.8369 156.012 16 156.502 16 157.078C16 157.771 15.7783 158.319 15.3339 158.722L4.42105 168.809C4.23296 169.014 4.02761 169.268 3.80673 169.572C3.58412 169.873 3.47196 170.183 3.47196 170.5C3.47196 170.818 3.58412 171.129 3.80673 171.433C4.02761 171.734 4.23296 171.971 4.42105 172.144L15.3684 182.317Z" fill="url(#paint5_linear_533_1060)"/>
<path d="M3.78947 198.817C4.39862 198.817 4.91458 199.077 5.33563 199.597C5.75669 200.116 5.96721 200.751 5.96721 201.5C5.96721 202.249 5.75669 202.884 5.33563 203.403C4.91458 203.923 4.39862 204.183 3.78947 204.183C3.18205 204.183 2.66782 203.923 2.24676 203.403C1.82571 202.884 1.61519 202.249 1.61519 201.5C1.61519 200.751 1.82571 200.116 2.24676 199.597C2.66782 199.077 3.18205 198.817 3.78947 198.817ZM0.631579 189.683C0.210526 189.249 0 188.714 0 188.078C0 187.501 0.163072 187.01 0.490078 186.605C0.818809 186.201 1.21657 186 1.68421 186C2.10526 186 2.44435 186.145 2.70233 186.434L14.1777 196.956C14.7161 197.444 15.1544 198.093 15.4927 198.902C15.8309 199.712 16 200.577 16 201.5C16 202.365 15.8481 203.187 15.5444 203.966C15.2407 204.746 14.8197 205.381 14.2813 205.873L2.87834 216.395C2.71441 216.568 2.53322 216.712 2.33305 216.825C2.1346 216.941 1.9189 217 1.68421 217C1.21657 217 0.818809 216.797 0.490078 216.391C0.163072 215.988 0 215.498 0 214.922C0 214.229 0.221743 213.681 0.666092 213.278L11.5789 203.191C11.767 202.986 11.9724 202.732 12.1933 202.428C12.4159 202.127 12.528 201.817 12.528 201.5C12.528 201.182 12.4159 200.871 12.1933 200.567C11.9724 200.266 11.767 200.029 11.5789 199.856L0.631579 189.683Z" fill="url(#paint6_linear_533_1060)"/>
<path d="M12.2105 235.183C11.6014 235.183 11.0854 234.923 10.6644 234.403C10.2433 233.884 10.0328 233.249 10.0328 232.5C10.0328 231.751 10.2433 231.116 10.6644 230.597C11.0854 230.077 11.6014 229.817 12.2105 229.817C12.8179 229.817 13.3322 230.077 13.7532 230.597C14.1743 231.116 14.3848 231.751 14.3848 232.5C14.3848 233.249 14.1743 233.884 13.7532 234.403C13.3322 234.923 12.8179 235.183 12.2105 235.183ZM15.3684 244.317C15.7895 244.751 16 245.286 16 245.922C16 246.499 15.8369 246.99 15.5099 247.395C15.1812 247.799 14.7834 248 14.3158 248C13.8947 248 13.5557 247.855 13.2977 247.566L1.82226 237.044C1.28387 236.556 0.845557 235.907 0.507334 235.098C0.169111 234.288 0 233.423 0 232.5C0 231.635 0.151855 230.813 0.455565 230.034C0.759275 229.254 1.18033 228.619 1.71872 228.127L13.1217 217.605C13.2856 217.432 13.4668 217.288 13.667 217.175C13.8654 217.059 14.0811 217 14.3158 217C14.7834 217 15.1812 217.203 15.5099 217.609C15.8369 218.012 16 218.502 16 219.078C16 219.771 15.7783 220.319 15.3339 220.722L4.42105 230.809C4.23296 231.014 4.02761 231.268 3.80673 231.572C3.58412 231.873 3.47196 232.183 3.47196 232.5C3.47196 232.818 3.58412 233.129 3.80673 233.433C4.02761 233.734 4.23296 233.971 4.42105 234.144L15.3684 244.317Z" fill="url(#paint7_linear_533_1060)"/>
<path d="M3.78947 260.817C4.39862 260.817 4.91458 261.077 5.33563 261.597C5.75669 262.116 5.96721 262.751 5.96721 263.5C5.96721 264.249 5.75669 264.884 5.33563 265.403C4.91458 265.923 4.39862 266.183 3.78947 266.183C3.18205 266.183 2.66782 265.923 2.24676 265.403C1.82571 264.884 1.61519 264.249 1.61519 263.5C1.61519 262.751 1.82571 262.116 2.24676 261.597C2.66782 261.077 3.18205 260.817 3.78947 260.817ZM0.631579 251.683C0.210526 251.249 0 250.714 0 250.078C0 249.501 0.163072 249.01 0.490078 248.605C0.818809 248.201 1.21657 248 1.68421 248C2.10526 248 2.44435 248.145 2.70233 248.434L14.1777 258.956C14.7161 259.444 15.1544 260.093 15.4927 260.902C15.8309 261.712 16 262.577 16 263.5C16 264.365 15.8481 265.187 15.5444 265.966C15.2407 266.746 14.8197 267.381 14.2813 267.873L2.87834 278.395C2.71441 278.568 2.53322 278.712 2.33305 278.825C2.1346 278.941 1.9189 279 1.68421 279C1.21657 279 0.818809 278.797 0.490078 278.391C0.163072 277.988 0 277.498 0 276.922C0 276.229 0.221743 275.681 0.666092 275.278L11.5789 265.191C11.767 264.986 11.9724 264.732 12.1933 264.428C12.4159 264.127 12.528 263.817 12.528 263.5C12.528 263.182 12.4159 262.871 12.1933 262.567C11.9724 262.266 11.767 262.029 11.5789 261.856L0.631579 251.683Z" fill="url(#paint8_linear_533_1060)"/>
<path d="M12.2105 297.183C11.6014 297.183 11.0854 296.923 10.6644 296.403C10.2433 295.884 10.0328 295.249 10.0328 294.5C10.0328 293.751 10.2433 293.116 10.6644 292.597C11.0854 292.077 11.6014 291.817 12.2105 291.817C12.8179 291.817 13.3322 292.077 13.7532 292.597C14.1743 293.116 14.3848 293.751 14.3848 294.5C14.3848 295.249 14.1743 295.884 13.7532 296.403C13.3322 296.923 12.8179 297.183 12.2105 297.183ZM15.3684 306.317C15.7895 306.751 16 307.286 16 307.922C16 308.499 15.8369 308.99 15.5099 309.395C15.1812 309.799 14.7834 310 14.3158 310C13.8947 310 13.5557 309.855 13.2977 309.566L1.82226 299.044C1.28387 298.556 0.845557 297.907 0.507334 297.098C0.169111 296.288 0 295.423 0 294.5C0 293.635 0.151855 292.813 0.455565 292.034C0.759275 291.254 1.18033 290.619 1.71872 290.127L13.1217 279.605C13.2856 279.432 13.4668 279.288 13.667 279.175C13.8654 279.059 14.0811 279 14.3158 279C14.7834 279 15.1812 279.203 15.5099 279.609C15.8369 280.012 16 280.502 16 281.078C16 281.771 15.7783 282.319 15.3339 282.722L4.42105 292.809C4.23296 293.014 4.02761 293.268 3.80673 293.572C3.58412 293.873 3.47196 294.183 3.47196 294.5C3.47196 294.818 3.58412 295.129 3.80673 295.433C4.02761 295.734 4.23296 295.971 4.42105 296.144L15.3684 306.317Z" fill="url(#paint9_linear_533_1060)"/>
<path d="M3.78947 322.817C4.39862 322.817 4.91458 323.077 5.33563 323.597C5.75669 324.116 5.96721 324.751 5.96721 325.5C5.96721 326.249 5.75669 326.884 5.33563 327.403C4.91458 327.923 4.39862 328.183 3.78947 328.183C3.18205 328.183 2.66782 327.923 2.24676 327.403C1.82571 326.884 1.61519 326.249 1.61519 325.5C1.61519 324.751 1.82571 324.116 2.24676 323.597C2.66782 323.077 3.18205 322.817 3.78947 322.817ZM0.631579 313.683C0.210526 313.249 0 312.714 0 312.078C0 311.501 0.163072 311.01 0.490078 310.605C0.818809 310.201 1.21657 310 1.68421 310C2.10526 310 2.44435 310.145 2.70233 310.434L14.1777 320.956C14.7161 321.444 15.1544 322.093 15.4927 322.902C15.8309 323.712 16 324.577 16 325.5C16 326.365 15.8481 327.187 15.5444 327.966C15.2407 328.746 14.8197 329.381 14.2813 329.873L2.87834 340.395C2.71441 340.568 2.53322 340.712 2.33305 340.825C2.1346 340.941 1.9189 341 1.68421 341C1.21657 341 0.818809 340.797 0.490078 340.391C0.163072 339.988 0 339.498 0 338.922C0 338.229 0.221743 337.681 0.666092 337.278L11.5789 327.191C11.767 326.986 11.9724 326.732 12.1933 326.428C12.4159 326.127 12.528 325.817 12.528 325.5C12.528 325.182 12.4159 324.871 12.1933 324.567C11.9724 324.266 11.767 324.029 11.5789 323.856L0.631579 313.683Z" fill="url(#paint10_linear_533_1060)"/>
<path d="M12.2105 359.183C11.6014 359.183 11.0854 358.923 10.6644 358.403C10.2433 357.884 10.0328 357.249 10.0328 356.5C10.0328 355.751 10.2433 355.116 10.6644 354.597C11.0854 354.077 11.6014 353.817 12.2105 353.817C12.8179 353.817 13.3322 354.077 13.7532 354.597C14.1743 355.116 14.3848 355.751 14.3848 356.5C14.3848 357.249 14.1743 357.884 13.7532 358.403C13.3322 358.923 12.8179 359.183 12.2105 359.183ZM15.3684 368.317C15.7895 368.751 16 369.286 16 369.922C16 370.499 15.8369 370.99 15.5099 371.395C15.1812 371.799 14.7834 372 14.3158 372C13.8947 372 13.5557 371.855 13.2977 371.566L1.82226 361.044C1.28387 360.556 0.845557 359.907 0.507334 359.098C0.169111 358.288 0 357.423 0 356.5C0 355.635 0.151855 354.813 0.455565 354.034C0.759275 353.254 1.18033 352.619 1.71872 352.127L13.1217 341.605C13.2856 341.432 13.4668 341.288 13.667 341.175C13.8654 341.059 14.0811 341 14.3158 341C14.7834 341 15.1812 341.203 15.5099 341.609C15.8369 342.012 16 342.502 16 343.078C16 343.771 15.7783 344.319 15.3339 344.722L4.42105 354.809C4.23296 355.014 4.02761 355.268 3.80673 355.572C3.58412 355.873 3.47196 356.183 3.47196 356.5C3.47196 356.818 3.58412 357.129 3.80673 357.433C4.02761 357.734 4.23296 357.971 4.42105 358.144L15.3684 368.317Z" fill="url(#paint11_linear_533_1060)"/>
<path d="M3.78947 384.817C4.39862 384.817 4.91458 385.077 5.33563 385.597C5.75669 386.116 5.96721 386.751 5.96721 387.5C5.96721 388.249 5.75669 388.884 5.33563 389.403C4.91458 389.923 4.39862 390.183 3.78947 390.183C3.18205 390.183 2.66782 389.923 2.24676 389.403C1.82571 388.884 1.61519 388.249 1.61519 387.5C1.61519 386.751 1.82571 386.116 2.24676 385.597C2.66782 385.077 3.18205 384.817 3.78947 384.817ZM0.631579 375.683C0.210526 375.249 0 374.714 0 374.078C0 373.501 0.163072 373.01 0.490078 372.605C0.818809 372.201 1.21657 372 1.68421 372C2.10526 372 2.44435 372.145 2.70233 372.434L14.1777 382.956C14.7161 383.444 15.1544 384.093 15.4927 384.902C15.8309 385.712 16 386.577 16 387.5C16 388.365 15.8481 389.187 15.5444 389.966C15.2407 390.746 14.8197 391.381 14.2813 391.873L2.87834 402.395C2.71441 402.568 2.53322 402.712 2.33305 402.825C2.1346 402.941 1.9189 403 1.68421 403C1.21657 403 0.818809 402.797 0.490078 402.391C0.163072 401.988 0 401.498 0 400.922C0 400.229 0.221743 399.681 0.666092 399.278L11.5789 389.191C11.767 388.986 11.9724 388.732 12.1933 388.428C12.4159 388.127 12.528 387.817 12.528 387.5C12.528 387.182 12.4159 386.871 12.1933 386.567C11.9724 386.266 11.767 386.029 11.5789 385.856L0.631579 375.683Z" fill="url(#paint12_linear_533_1060)"/>
<path d="M12.2105 421.183C11.6014 421.183 11.0854 420.923 10.6644 420.403C10.2433 419.884 10.0328 419.249 10.0328 418.5C10.0328 417.751 10.2433 417.116 10.6644 416.597C11.0854 416.077 11.6014 415.817 12.2105 415.817C12.8179 415.817 13.3322 416.077 13.7532 416.597C14.1743 417.116 14.3848 417.751 14.3848 418.5C14.3848 419.249 14.1743 419.884 13.7532 420.403C13.3322 420.923 12.8179 421.183 12.2105 421.183ZM15.3684 430.317C15.7895 430.751 16 431.286 16 431.922C16 432.499 15.8369 432.99 15.5099 433.395C15.1812 433.799 14.7834 434 14.3158 434C13.8947 434 13.5557 433.855 13.2977 433.566L1.82226 423.044C1.28387 422.556 0.845557 421.907 0.507334 421.098C0.169111 420.288 0 419.423 0 418.5C0 417.635 0.151855 416.813 0.455565 416.034C0.759275 415.254 1.18033 414.619 1.71872 414.127L13.1217 403.605C13.2856 403.432 13.4668 403.288 13.667 403.175C13.8654 403.059 14.0811 403 14.3158 403C14.7834 403 15.1812 403.203 15.5099 403.609C15.8369 404.012 16 404.502 16 405.078C16 405.771 15.7783 406.319 15.3339 406.722L4.42105 416.809C4.23296 417.014 4.02761 417.268 3.80673 417.572C3.58412 417.873 3.47196 418.183 3.47196 418.5C3.47196 418.818 3.58412 419.129 3.80673 419.433C4.02761 419.734 4.23296 419.971 4.42105 420.144L15.3684 430.317Z" fill="url(#paint13_linear_533_1060)"/>
<path d="M3.78947 446.817C4.39862 446.817 4.91458 447.077 5.33563 447.597C5.75669 448.116 5.96721 448.751 5.96721 449.5C5.96721 450.249 5.75669 450.884 5.33563 451.403C4.91458 451.923 4.39862 452.183 3.78947 452.183C3.18205 452.183 2.66782 451.923 2.24676 451.403C1.82571 450.884 1.61519 450.249 1.61519 449.5C1.61519 448.751 1.82571 448.116 2.24676 447.597C2.66782 447.077 3.18205 446.817 3.78947 446.817ZM0.631579 437.683C0.210526 437.249 0 436.714 0 436.078C0 435.501 0.163072 435.01 0.490078 434.605C0.818809 434.201 1.21657 434 1.68421 434C2.10526 434 2.44435 434.145 2.70233 434.434L14.1777 444.956C14.7161 445.444 15.1544 446.093 15.4927 446.902C15.8309 447.712 16 448.577 16 449.5C16 450.365 15.8481 451.187 15.5444 451.966C15.2407 452.746 14.8197 453.381 14.2813 453.873L2.87834 464.395C2.71441 464.568 2.53322 464.712 2.33305 464.825C2.1346 464.941 1.9189 465 1.68421 465C1.21657 465 0.818809 464.797 0.490078 464.391C0.163072 463.988 0 463.498 0 462.922C0 462.229 0.221743 461.681 0.666092 461.278L11.5789 451.191C11.767 450.986 11.9724 450.732 12.1933 450.428C12.4159 450.127 12.528 449.817 12.528 449.5C12.528 449.182 12.4159 448.871 12.1933 448.567C11.9724 448.266 11.767 448.029 11.5789 447.856L0.631579 437.683Z" fill="url(#paint14_linear_533_1060)"/>
<path d="M12.2105 483.183C11.6014 483.183 11.0854 482.923 10.6644 482.403C10.2433 481.884 10.0328 481.249 10.0328 480.5C10.0328 479.751 10.2433 479.116 10.6644 478.597C11.0854 478.077 11.6014 477.817 12.2105 477.817C12.8179 477.817 13.3322 478.077 13.7532 478.597C14.1743 479.116 14.3848 479.751 14.3848 480.5C14.3848 481.249 14.1743 481.884 13.7532 482.403C13.3322 482.923 12.8179 483.183 12.2105 483.183ZM15.3684 492.317C15.7895 492.751 16 493.286 16 493.922C16 494.499 15.8369 494.99 15.5099 495.395C15.1812 495.799 14.7834 496 14.3158 496C13.8947 496 13.5557 495.855 13.2977 495.566L1.82226 485.044C1.28387 484.556 0.845557 483.907 0.507334 483.098C0.169111 482.288 0 481.423 0 480.5C0 479.635 0.151855 478.813 0.455565 478.034C0.759275 477.254 1.18033 476.619 1.71872 476.127L13.1217 465.605C13.2856 465.432 13.4668 465.288 13.667 465.175C13.8654 465.059 14.0811 465 14.3158 465C14.7834 465 15.1812 465.203 15.5099 465.609C15.8369 466.012 16 466.502 16 467.078C16 467.771 15.7783 468.319 15.3339 468.722L4.42105 478.809C4.23296 479.014 4.02761 479.268 3.80673 479.572C3.58412 479.873 3.47196 480.183 3.47196 480.5C3.47196 480.818 3.58412 481.129 3.80673 481.433C4.02761 481.734 4.23296 481.971 4.42105 482.144L15.3684 492.317Z" fill="url(#paint15_linear_533_1060)"/>
<path d="M3.78947 508.817C4.39862 508.817 4.91458 509.077 5.33563 509.597C5.75669 510.116 5.96721 510.751 5.96721 511.5C5.96721 512.249 5.75669 512.884 5.33563 513.403C4.91458 513.923 4.39862 514.183 3.78947 514.183C3.18205 514.183 2.66782 513.923 2.24676 513.403C1.82571 512.884 1.61519 512.249 1.61519 511.5C1.61519 510.751 1.82571 510.116 2.24676 509.597C2.66782 509.077 3.18205 508.817 3.78947 508.817ZM0.631579 499.683C0.210526 499.249 0 498.714 0 498.078C0 497.501 0.163072 497.01 0.490078 496.605C0.818809 496.201 1.21657 496 1.68421 496C2.10526 496 2.44435 496.145 2.70233 496.434L14.1777 506.956C14.7161 507.444 15.1544 508.093 15.4927 508.902C15.8309 509.712 16 510.577 16 511.5C16 512.365 15.8481 513.187 15.5444 513.966C15.2407 514.746 14.8197 515.381 14.2813 515.873L2.87834 526.395C2.71441 526.568 2.53322 526.712 2.33305 526.825C2.1346 526.941 1.9189 527 1.68421 527C1.21657 527 0.818809 526.797 0.490078 526.391C0.163072 525.988 0 525.498 0 524.922C0 524.229 0.221743 523.681 0.666092 523.278L11.5789 513.191C11.767 512.986 11.9724 512.732 12.1933 512.428C12.4159 512.127 12.528 511.817 12.528 511.5C12.528 511.182 12.4159 510.871 12.1933 510.567C11.9724 510.266 11.767 510.029 11.5789 509.856L0.631579 499.683Z" fill="url(#paint16_linear_533_1060)"/>
<path d="M12.2105 545.183C11.6014 545.183 11.0854 544.923 10.6644 544.403C10.2433 543.884 10.0328 543.249 10.0328 542.5C10.0328 541.751 10.2433 541.116 10.6644 540.597C11.0854 540.077 11.6014 539.817 12.2105 539.817C12.8179 539.817 13.3322 540.077 13.7532 540.597C14.1743 541.116 14.3848 541.751 14.3848 542.5C14.3848 543.249 14.1743 543.884 13.7532 544.403C13.3322 544.923 12.8179 545.183 12.2105 545.183ZM15.3684 554.317C15.7895 554.751 16 555.286 16 555.922C16 556.499 15.8369 556.99 15.5099 557.395C15.1812 557.799 14.7834 558 14.3158 558C13.8947 558 13.5557 557.855 13.2977 557.566L1.82226 547.044C1.28387 546.556 0.845557 545.907 0.507334 545.098C0.169111 544.288 0 543.423 0 542.5C0 541.635 0.151855 540.813 0.455565 540.034C0.759275 539.254 1.18033 538.619 1.71872 538.127L13.1217 527.605C13.2856 527.432 13.4668 527.288 13.667 527.175C13.8654 527.059 14.0811 527 14.3158 527C14.7834 527 15.1812 527.203 15.5099 527.609C15.8369 528.012 16 528.502 16 529.078C16 529.771 15.7783 530.319 15.3339 530.722L4.42105 540.809C4.23296 541.014 4.02761 541.268 3.80673 541.572C3.58412 541.873 3.47196 542.183 3.47196 542.5C3.47196 542.818 3.58412 543.129 3.80673 543.433C4.02761 543.734 4.23296 543.971 4.42105 544.144L15.3684 554.317Z" fill="url(#paint17_linear_533_1060)"/>
<path d="M3.78947 570.817C4.39862 570.817 4.91458 571.077 5.33563 571.597C5.75669 572.116 5.96721 572.751 5.96721 573.5C5.96721 574.249 5.75669 574.884 5.33563 575.403C4.91458 575.923 4.39862 576.183 3.78947 576.183C3.18205 576.183 2.66782 575.923 2.24676 575.403C1.82571 574.884 1.61519 574.249 1.61519 573.5C1.61519 572.751 1.82571 572.116 2.24676 571.597C2.66782 571.077 3.18205 570.817 3.78947 570.817ZM0.631579 561.683C0.210526 561.249 0 560.714 0 560.078C0 559.501 0.163072 559.01 0.490078 558.605C0.818809 558.201 1.21657 558 1.68421 558C2.10526 558 2.44435 558.145 2.70233 558.434L14.1777 568.956C14.7161 569.444 15.1544 570.093 15.4927 570.902C15.8309 571.712 16 572.577 16 573.5C16 574.365 15.8481 575.187 15.5444 575.966C15.2407 576.746 14.8197 577.381 14.2813 577.873L2.87834 588.395C2.71441 588.568 2.53322 588.712 2.33305 588.825C2.1346 588.941 1.9189 589 1.68421 589C1.21657 589 0.818809 588.797 0.490078 588.391C0.163072 587.988 0 587.498 0 586.922C0 586.229 0.221743 585.681 0.666092 585.278L11.5789 575.191C11.767 574.986 11.9724 574.732 12.1933 574.428C12.4159 574.127 12.528 573.817 12.528 573.5C12.528 573.182 12.4159 572.871 12.1933 572.567C11.9724 572.266 11.767 572.029 11.5789 571.856L0.631579 561.683Z" fill="url(#paint18_linear_533_1060)"/>
<defs>
<linearGradient id="paint0_linear_533_1060" x1="8" y1="0" x2="8" y2="31" gradientUnits="userSpaceOnUse">
<stop stop-color="#326419"/>
<stop offset="1" stop-color="#DF3F32"/>
</linearGradient>
<linearGradient id="paint1_linear_533_1060" x1="8" y1="31" x2="8" y2="62" gradientUnits="userSpaceOnUse">
<stop stop-color="#326419"/>
<stop offset="1" stop-color="#DF3F32"/>
</linearGradient>
<linearGradient id="paint2_linear_533_1060" x1="8" y1="62" x2="8" y2="93" gradientUnits="userSpaceOnUse">
<stop stop-color="#326419"/>
<stop offset="1" stop-color="#DF3F32"/>
</linearGradient>
<linearGradient id="paint3_linear_533_1060" x1="8" y1="93" x2="8" y2="124" gradientUnits="userSpaceOnUse">
<stop stop-color="#326419"/>
<stop offset="1" stop-color="#DF3F32"/>
</linearGradient>
<linearGradient id="paint4_linear_533_1060" x1="8" y1="124" x2="8" y2="155" gradientUnits="userSpaceOnUse">
<stop stop-color="#326419"/>
<stop offset="1" stop-color="#DF3F32"/>
</linearGradient>
<linearGradient id="paint5_linear_533_1060" x1="8" y1="155" x2="8" y2="186" gradientUnits="userSpaceOnUse">
<stop stop-color="#326419"/>
<stop offset="1" stop-color="#DF3F32"/>
</linearGradient>
<linearGradient id="paint6_linear_533_1060" x1="8" y1="186" x2="8" y2="217" gradientUnits="userSpaceOnUse">
<stop stop-color="#326419"/>
<stop offset="1" stop-color="#DF3F32"/>
</linearGradient>
<linearGradient id="paint7_linear_533_1060" x1="8" y1="217" x2="8" y2="248" gradientUnits="userSpaceOnUse">
<stop stop-color="#326419"/>
<stop offset="1" stop-color="#DF3F32"/>
</linearGradient>
<linearGradient id="paint8_linear_533_1060" x1="8" y1="248" x2="8" y2="279" gradientUnits="userSpaceOnUse">
<stop stop-color="#326419"/>
<stop offset="1" stop-color="#DF3F32"/>
</linearGradient>
<linearGradient id="paint9_linear_533_1060" x1="8" y1="279" x2="8" y2="310" gradientUnits="userSpaceOnUse">
<stop stop-color="#326419"/>
<stop offset="1" stop-color="#DF3F32"/>
</linearGradient>
<linearGradient id="paint10_linear_533_1060" x1="8" y1="310" x2="8" y2="341" gradientUnits="userSpaceOnUse">
<stop stop-color="#326419"/>
<stop offset="1" stop-color="#DF3F32"/>
</linearGradient>
<linearGradient id="paint11_linear_533_1060" x1="8" y1="341" x2="8" y2="372" gradientUnits="userSpaceOnUse">
<stop stop-color="#326419"/>
<stop offset="1" stop-color="#DF3F32"/>
</linearGradient>
<linearGradient id="paint12_linear_533_1060" x1="8" y1="372" x2="8" y2="403" gradientUnits="userSpaceOnUse">
<stop stop-color="#326419"/>
<stop offset="1" stop-color="#DF3F32"/>
</linearGradient>
<linearGradient id="paint13_linear_533_1060" x1="8" y1="403" x2="8" y2="434" gradientUnits="userSpaceOnUse">
<stop stop-color="#326419"/>
<stop offset="1" stop-color="#DF3F32"/>
</linearGradient>
<linearGradient id="paint14_linear_533_1060" x1="8" y1="434" x2="8" y2="465" gradientUnits="userSpaceOnUse">
<stop stop-color="#326419"/>
<stop offset="1" stop-color="#DF3F32"/>
</linearGradient>
<linearGradient id="paint15_linear_533_1060" x1="8" y1="465" x2="8" y2="496" gradientUnits="userSpaceOnUse">
<stop stop-color="#326419"/>
<stop offset="1" stop-color="#DF3F32"/>
</linearGradient>
<linearGradient id="paint16_linear_533_1060" x1="8" y1="496" x2="8" y2="527" gradientUnits="userSpaceOnUse">
<stop stop-color="#326419"/>
<stop offset="1" stop-color="#DF3F32"/>
</linearGradient>
<linearGradient id="paint17_linear_533_1060" x1="8" y1="527" x2="8" y2="558" gradientUnits="userSpaceOnUse">
<stop stop-color="#326419"/>
<stop offset="1" stop-color="#DF3F32"/>
</linearGradient>
<linearGradient id="paint18_linear_533_1060" x1="8" y1="558" x2="8" y2="589" gradientUnits="userSpaceOnUse">
<stop stop-color="#326419"/>
<stop offset="1" stop-color="#DF3F32"/>
</linearGradient>
</defs>
</svg>
