<svg width="16" height="16" viewBox="0 0 16 16" fill="none" xmlns="http://www.w3.org/2000/svg">
<path d="M10.7532 10.7532C10.9484 10.5579 11.2649 10.5579 11.4602 10.7532L14.3534 13.6464C14.5487 13.8416 14.5487 14.1581 14.3534 14.3534C14.1581 14.5487 13.8416 14.5487 13.6464 14.3534L10.7532 11.4602C10.5579 11.2649 10.5579 10.9484 10.7532 10.7532Z" fill="white"/>
<path d="M12.1667 7.33333C12.1667 4.66396 10.0027 2.5 7.33333 2.5C4.66396 2.5 2.5 4.66396 2.5 7.33333C2.5 10.0027 4.66396 12.1667 7.33333 12.1667C10.0027 12.1667 12.1667 10.0027 12.1667 7.33333ZM13.1667 7.33333C13.1667 10.555 10.555 13.1667 7.33333 13.1667C4.11167 13.1667 1.5 10.555 1.5 7.33333C1.5 4.11167 4.11167 1.5 7.33333 1.5C10.555 1.5 13.1667 4.11167 13.1667 7.33333Z" fill="white"/>
</svg>
