<svg width="16" height="16" viewBox="0 0 16 16" fill="none" xmlns="http://www.w3.org/2000/svg">
<g clip-path="url(#clip0_383_95)">
<path d="M5.49997 14C5.49997 13.908 5.42535 13.8334 5.3333 13.8334C5.24126 13.8334 5.16664 13.908 5.16664 14C5.16664 14.0921 5.24126 14.1667 5.3333 14.1667C5.42535 14.1667 5.49997 14.0921 5.49997 14ZM6.49997 14C6.49997 14.6444 5.97764 15.1667 5.3333 15.1667C4.68897 15.1667 4.16664 14.6444 4.16664 14C4.16664 13.3557 4.68897 12.8334 5.3333 12.8334C5.97764 12.8334 6.49997 13.3557 6.49997 14Z" fill="#FAFAFA"/>
<path d="M12.8333 14C12.8333 13.908 12.7587 13.8334 12.6666 13.8334C12.5746 13.8334 12.5 13.908 12.5 14C12.5 14.0921 12.5746 14.1667 12.6666 14.1667C12.7587 14.1667 12.8333 14.0921 12.8333 14ZM13.8333 14C13.8333 14.6444 13.311 15.1667 12.6666 15.1667C12.0223 15.1667 11.5 14.6444 11.5 14C11.5 13.3557 12.0223 12.8334 12.6666 12.8334C13.311 12.8334 13.8333 13.3557 13.8333 14Z" fill="#FAFAFA"/>
<path d="M2.69997 0.866699C2.93573 0.866699 3.13949 1.03137 3.1889 1.26188L3.81846 4.20003H14.7267C14.8782 4.20004 15.0217 4.2687 15.1166 4.38688C15.2115 4.50507 15.2477 4.66017 15.2149 4.80811L14.1147 9.76188L14.114 9.76123C14.0243 10.1685 13.7989 10.5329 13.4741 10.7944C13.1491 11.0561 12.7448 11.1993 12.3276 11.2H5.80674C5.38429 11.2069 4.97245 11.0675 4.64073 10.8055C4.34796 10.5742 4.13375 10.26 4.02484 9.90576L3.98448 9.75146L2.92588 4.80941C2.92429 4.80228 2.92261 4.79516 2.92133 4.78792L2.29567 1.8667H1.36664C1.0905 1.8667 0.866638 1.64284 0.866638 1.3667C0.866638 1.09056 1.0905 0.866699 1.36664 0.866699H2.69997ZM4.96234 9.54183L4.98057 9.61214C5.0301 9.77307 5.1275 9.91591 5.26052 10.021C5.4126 10.1411 5.60193 10.2043 5.79567 10.2H12.3256C12.5153 10.1997 12.6994 10.1347 12.8471 10.0158C12.9948 9.89685 13.0973 9.73095 13.1381 9.54574L13.1388 9.54508L14.1036 5.20003H4.03265L4.96234 9.54183Z" fill="#FAFAFA"/>
</g>
<defs>
<clipPath id="clip0_383_95">
<rect width="16" height="16" fill="white"/>
</clipPath>
</defs>
</svg>
