<svg width="16" height="16" viewBox="0 0 16 16" fill="none" xmlns="http://www.w3.org/2000/svg">
<path d="M6.66665 6.83301C6.94279 6.83301 7.16665 7.05687 7.16665 7.33301C7.16665 7.60915 6.94279 7.83301 6.66665 7.83301H3.99998C3.72384 7.83301 3.49998 7.60915 3.49998 7.33301C3.49998 7.05687 3.72384 6.83301 3.99998 6.83301H6.66665Z" fill="#FAFAFA"/>
<path d="M4.83331 8.66634V5.99967C4.83331 5.72353 5.05717 5.49967 5.33331 5.49967C5.60946 5.49967 5.83331 5.72353 5.83331 5.99967V8.66634C5.83331 8.94248 5.60946 9.16634 5.33331 9.16634C5.05717 9.16634 4.83331 8.94248 4.83331 8.66634Z" fill="#FAFAFA"/>
<path d="M10.0065 7.49967C10.2826 7.49967 10.5065 7.72353 10.5065 7.99967C10.5065 8.27582 10.2826 8.49967 10.0065 8.49967H9.99998C9.72384 8.49967 9.49998 8.27582 9.49998 7.99967C9.49998 7.72353 9.72384 7.49967 9.99998 7.49967H10.0065Z" fill="#FAFAFA"/>
<path d="M12.0065 6.16634C12.2826 6.16634 12.5065 6.3902 12.5065 6.66634C12.5065 6.94248 12.2826 7.16634 12.0065 7.16634H12C11.7238 7.16634 11.5 6.94248 11.5 6.66634C11.5 6.3902 11.7238 6.16634 12 6.16634H12.0065Z" fill="#FAFAFA"/>
<path d="M9.4479 10.1663C9.93404 10.1664 10.4004 10.3597 10.7441 10.7035L11.6868 11.6462C12.0149 11.9742 12.2198 12.1663 12.6666 12.1663C13.0645 12.1663 13.4459 12.0082 13.7272 11.7269C14.0085 11.4456 14.1666 11.0642 14.1666 10.6663C14.1666 9.67497 13.77 6.3572 13.7135 5.88704C13.7087 5.84963 13.7023 5.78967 13.7018 5.78548L13.7012 5.77832C13.6463 5.24506 13.3959 4.75087 12.998 4.3916C12.6 4.03232 12.0824 3.83315 11.5462 3.83301H4.4531C3.91724 3.83321 3.40046 4.032 3.00258 4.39095C2.60459 4.75012 2.35376 5.24439 2.29881 5.77767L2.29816 5.78353C2.29712 5.79247 2.29068 5.84832 2.28579 5.88639L2.28644 5.88704C2.22994 6.35719 1.83331 9.67564 1.83331 10.6663C1.83331 11.0642 1.99146 11.4456 2.27277 11.7269C2.55407 12.0082 2.93549 12.1663 3.33331 12.1663C3.78014 12.1663 3.98505 11.9742 4.31313 11.6462L5.25584 10.7035C5.59957 10.3597 6.06592 10.1664 6.55206 10.1663H9.4479ZM15.1666 10.6663C15.1666 11.3294 14.9031 11.9651 14.4342 12.4339C13.9654 12.9028 13.3297 13.1663 12.6666 13.1663C11.7801 13.1663 11.3184 12.6918 10.9798 12.3532L10.0371 11.4105C9.9003 11.2737 9.7208 11.1892 9.52993 11.1702L9.4479 11.1663H6.55206C6.35871 11.1664 6.17231 11.2336 6.02407 11.3551L5.96287 11.4105L5.02016 12.3532C4.68158 12.6918 4.21982 13.1663 3.33331 13.1663C2.67027 13.1663 2.03458 12.9028 1.56573 12.4339C1.09689 11.9651 0.833313 11.3294 0.833313 10.6663C0.833313 9.59838 1.2421 6.19642 1.2936 5.7679L1.29425 5.75944C1.29839 5.72926 1.29781 5.7284 1.30467 5.66895C1.38627 4.8919 1.75251 4.17233 2.33266 3.64876C2.91429 3.12395 3.66969 2.83321 4.4531 2.83301H11.5469L11.6933 2.83626C12.4242 2.87029 13.1226 3.15654 13.6679 3.64876C14.2477 4.17215 14.6129 4.89168 14.6946 5.66829C14.7021 5.73174 14.7007 5.72723 14.7051 5.75814C14.7055 5.76132 14.706 5.76472 14.7064 5.7679C14.7579 6.19641 15.1666 9.59771 15.1666 10.6663Z" fill="#FAFAFA"/>
</svg>
