<svg width="16" height="16" viewBox="0 0 16 16" fill="none" xmlns="http://www.w3.org/2000/svg">
<path d="M14.1668 5.66667C14.1668 4.82681 13.833 4.0216 13.2391 3.42773C12.6452 2.83387 11.84 2.5 11.0002 2.5C10.4636 2.5 10.0352 2.5757 9.63493 2.75C9.23143 2.92574 8.82518 3.21535 8.35368 3.68685C8.15842 3.88211 7.84191 3.88211 7.64665 3.68685C7.17514 3.21535 6.7689 2.92574 6.3654 2.75C5.96516 2.5757 5.53668 2.5 5.00016 2.5C4.16031 2.5 3.3551 2.83387 2.76123 3.42773C2.16737 4.0216 1.8335 4.82681 1.8335 5.66667C1.8335 6.8101 2.48446 7.7467 3.31527 8.60872L8.00016 13.293L12.3133 8.97982L12.3166 8.97591C13.311 8.0015 14.1668 6.96631 14.1668 5.66667ZM15.1668 5.66667C15.1668 7.42035 14.0093 8.7185 13.0171 9.69076L13.0164 9.6901L8.35368 14.3535C8.15842 14.5488 7.84191 14.5488 7.64665 14.3535L2.98584 9.69271C1.98303 8.72331 0.833496 7.42649 0.833496 5.66667C0.833496 4.5616 1.2728 3.5021 2.0542 2.7207C2.8356 1.9393 3.89509 1.5 5.00016 1.5C5.63692 1.5 6.20874 1.591 6.76514 1.83333C7.19409 2.0202 7.5951 2.28938 8.00016 2.64714C8.40523 2.28938 8.80623 2.0202 9.23519 1.83333C9.79159 1.591 10.3634 1.5 11.0002 1.5C12.1052 1.5 13.1647 1.9393 13.9461 2.7207C14.7275 3.5021 15.1668 4.5616 15.1668 5.66667Z" fill="#FAFAFA"/>
</svg>
