<svg width="16" height="16" viewBox="0 0 16 16" fill="none" xmlns="http://www.w3.org/2000/svg">
<path d="M7.5 14.6663V1.33301C7.5 1.05687 7.72386 0.833008 8 0.833008C8.27614 0.833008 8.5 1.05687 8.5 1.33301V14.6663C8.5 14.9425 8.27614 15.1663 8 15.1663C7.72386 15.1663 7.5 14.9425 7.5 14.6663Z" fill="#FAFAFA"/>
<path d="M11.5 10.333C11.5 9.84678 11.3067 9.3806 10.9629 9.03678C10.6191 8.69297 10.1529 8.49967 9.66667 8.49967H6.33333C5.58189 8.49967 4.86143 8.20095 4.33008 7.6696C3.79873 7.13824 3.5 6.41779 3.5 5.66634C3.5 4.91489 3.79873 4.19444 4.33008 3.66309C4.86143 3.13173 5.58189 2.83301 6.33333 2.83301H11.3333C11.6095 2.83301 11.8333 3.05687 11.8333 3.33301C11.8333 3.60915 11.6095 3.83301 11.3333 3.83301H6.33333C5.8471 3.83301 5.38093 4.0263 5.03711 4.37012C4.69329 4.71393 4.5 5.18011 4.5 5.66634C4.5 6.15257 4.69329 6.61875 5.03711 6.96256C5.38093 7.30638 5.8471 7.49967 6.33333 7.49967H9.66667C10.4181 7.49967 11.1386 7.7984 11.6699 8.32975C12.2013 8.86111 12.5 9.58156 12.5 10.333C12.5 11.0845 12.2013 11.8049 11.6699 12.3363C11.1386 12.8676 10.4181 13.1663 9.66667 13.1663H4C3.72386 13.1663 3.5 12.9425 3.5 12.6663C3.5 12.3902 3.72386 12.1663 4 12.1663H9.66667C10.1529 12.1663 10.6191 11.973 10.9629 11.6292C11.3067 11.2854 11.5 10.8192 11.5 10.333Z" fill="#FAFAFA"/>
</svg>
