<svg width="14" height="13" viewBox="0 0 14 13" fill="none" xmlns="http://www.w3.org/2000/svg">
<path d="M6.09504 0.34536C6.24472 -0.115296 6.89642 -0.115294 7.0461 0.345361L8.25443 4.06421C8.32136 4.27022 8.51334 4.4097 8.72996 4.4097H12.6402C13.1245 4.4097 13.3259 5.02951 12.9341 5.31421L9.77063 7.61258C9.59539 7.7399 9.52206 7.96559 9.589 8.1716L10.7973 11.8904C10.947 12.3511 10.4198 12.7342 10.0279 12.4495L6.86446 10.1511C6.68922 10.0238 6.45192 10.0238 6.27668 10.1511L3.11324 12.4495C2.72138 12.7342 2.19414 12.3511 2.34382 11.8904L3.55214 8.1716C3.61908 7.96559 3.54575 7.7399 3.37051 7.61258L0.207067 5.31421C-0.184789 5.02951 0.0165998 4.4097 0.500961 4.4097H4.41119C4.6278 4.4097 4.81978 4.27022 4.88672 4.06421L6.09504 0.34536Z" fill="white"/>
</svg>
